<svg id="Layer_1" width="100%" height="100%" data-name="Layer 1" xmlns="http://www.w3.org/2000/svg" viewBox="0 0 484.72 112.66"><defs><style>.cls-1{fill:#fff;}</style></defs><title>OB logo long </title><path class="cls-1" d="M48.17,112.66h0c-8.74,0-19.18-7.75-22.68-14.68a54.25,54.25,0,0,1-4.33-12.63A5.38,5.38,0,0,1,16.4,84c-1.56-1.66-1.32-3.42-1-5.46a23.17,23.17,0,0,0,.11-6.89A24.73,24.73,0,0,0,12.93,64c-1.16-2.45-2.25-4.77-1.68-7.4a3.15,3.15,0,0,1,1.82-2.35,6.31,6.31,0,0,1,4.48.26l-.2-1.68C12.42,51.91.65,49.11.06,44.52A3.93,3.93,0,0,1,1,41c1.7-1.63,4.73-1.11,8.23-.51l1.48.25a67.73,67.73,0,0,0,7,.72c-.08-2.56-.25-8.52-.43-17.26a21.64,21.64,0,0,1,6-16C28.66,2.76,37,0,48.16,0h0C59.34,0,67.7,2.76,73,8.2a21.64,21.64,0,0,1,6,16c-.17,8.74-.34,14.7-.43,17.26a67.8,67.8,0,0,0,7-.72h0l1.47-.25c3.51-.6,6.54-1.12,8.23.51a3.94,3.94,0,0,1,1,3.53c-.59,4.58-12.37,7.38-17.29,8.36l-.2,1.68a6.32,6.32,0,0,1,4.48-.26,3.15,3.15,0,0,1,1.82,2.35c.57,2.64-.53,5-1.68,7.4a24.73,24.73,0,0,0-2.53,7.59A23.17,23.17,0,0,0,81,78.52c.28,2,.52,3.8-1,5.46a5.38,5.38,0,0,1-4.75,1.37A54.25,54.25,0,0,1,70.88,98c-3.5,6.92-13.94,14.67-22.68,14.68ZM23.21,82l.26,1.54A52.83,52.83,0,0,0,27.82,96.8c3,6,12.78,13.23,20.35,13.24h.09c7.51,0,17.27-7.25,20.29-13.24a52.83,52.83,0,0,0,4.35-13.23L73.14,82l1.48.52s2.36.77,3.43-.36c.67-.71.62-1.36.35-3.31a25.79,25.79,0,0,1-.11-7.6,27.28,27.28,0,0,1,2.76-8.36c1.09-2.3,1.87-4,1.49-5.73-.09-.4-.24-.47-.32-.5-.85-.38-3.07.44-4.34,1.18l-2.27,1.31,1-8.52.95-.18c9.37-1.74,15.9-4.66,16.11-6.3,0-.37.09-1-.19-1.3-.74-.71-3.64-.22-6,.19l-1.5.25a68.33,68.33,0,0,1-8.77.81l-1.38,0,0-1.38c0-.07.24-6.8.47-18.63A19.08,19.08,0,0,0,71.16,10c-4.82-4.92-12.55-7.41-23-7.41h-.09C37.75,2.62,30,5.12,25.2,10A19.08,19.08,0,0,0,20,24.15c.23,11.83.47,18.56.47,18.63l0,1.38-1.38,0a68.31,68.31,0,0,1-8.77-.81l-1.5-.25c-2.33-.4-5.23-.9-6-.19-.28.26-.24.93-.19,1.3.21,1.64,6.74,4.56,16.11,6.3l.95.18,1,8.52-2.27-1.31c-1.28-.73-3.5-1.55-4.34-1.18-.08,0-.23.1-.32.5-.38,1.77.4,3.43,1.49,5.73a27.28,27.28,0,0,1,2.76,8.36,25.79,25.79,0,0,1-.11,7.6c-.27,1.94-.32,2.59.35,3.31,1.06,1.13,3.41.37,3.43.36Z" fill="currentColor" class="logoPartnerButton"/><path class="cls-1" d="M58.44,85.15H37.92a2,2,0,0,1-2.12-1.94c0-1.25,1.09-1.75,2.24-2.28a17,17,0,0,0,4.37-2.73c1-.87,1.16-3.52,1.07-5.17a20.34,20.34,0,0,1-8.27-9.44c-2.77-6.42-2.87-28.73-2.87-31.26a1.83,1.83,0,0,1,1.48-1.87c.45-.11,3.89-.83,14.35-.83s13.9.72,14.35.83A1.83,1.83,0,0,1,64,32.33c0,2.53-.11,24.85-2.87,31.26h0A20.34,20.34,0,0,1,52.87,73c-.09,1.65.07,4.3,1.07,5.17a17,17,0,0,0,4.37,2.73c1.15.53,2.24,1,2.24,2.28A2,2,0,0,1,58.44,85.15ZM40.73,82.53H55.62a18.31,18.31,0,0,1-3.4-2.34c-2.51-2.18-2-7.52-1.9-8.12l.08-.73.67-.31a17.62,17.62,0,0,0,7.66-8.48h0c2-4.71,2.62-20.57,2.65-29.64a89.8,89.8,0,0,0-13.21-.66A89.79,89.79,0,0,0,35,32.91c0,8.52.62,24.92,2.65,29.64A17.44,17.44,0,0,0,45.29,71l.67.31.08.73c.07.6.6,5.94-1.9,8.12A18.29,18.29,0,0,1,40.73,82.53ZM34.37,33h0Z" fill="currentColor" class="logoPartnerButton"/><path class="cls-1" d="M170.64,56.45v2.8h-1.55a8.52,8.52,0,0,0-6.35,2.39,9.06,9.06,0,0,0-2.36,6.65V84.18h-2.83V56.75h1.89l.94,4h.3a9.49,9.49,0,0,1,2-2.19,11.52,11.52,0,0,1,2.72-1.49,10.71,10.71,0,0,1,4-.67Z" fill="currentColor" class="logoPartnerButton"/><path class="cls-1" d="M191.25,86.38a9.51,9.51,0,0,0,3,4,10.45,10.45,0,0,0,9.22,1,8.39,8.39,0,0,0,4.63-4.61,9,9,0,0,0,.66-3.47v-5h-.33a15.72,15.72,0,0,1-2.28,2.5,12.33,12.33,0,0,1-2.85,1.72,9.34,9.34,0,0,1-3.88.78,11.72,11.72,0,0,1-4.84-1,11.93,11.93,0,0,1-4-2.86,14.11,14.11,0,0,1-2.68-4.28,14.34,14.34,0,0,1,0-10.47,14.12,14.12,0,0,1,2.68-4.28,12,12,0,0,1,4-2.86,11.74,11.74,0,0,1,4.84-1,9.31,9.31,0,0,1,3.9.78,12.42,12.42,0,0,1,2.83,1.72,14.59,14.59,0,0,1,2.28,2.47h.33l.91-4.66h1.89V83.24a11.88,11.88,0,0,1-.87,4.55,11,11,0,0,1-6.12,6.12,11.89,11.89,0,0,1-4.55.87,14.58,14.58,0,0,1-4.55-.65A11.08,11.08,0,0,1,192,92.31a10.88,10.88,0,0,1-2.43-2.68,10.76,10.76,0,0,1-1.4-3.26ZM189.7,69.84a10.75,10.75,0,0,0,.81,4.19,11.14,11.14,0,0,0,2.15,3.36,9.83,9.83,0,0,0,3.09,2.24,8.54,8.54,0,0,0,7.25,0,9.83,9.83,0,0,0,3.09-2.24A11.14,11.14,0,0,0,208.22,74a11.26,11.26,0,0,0,0-8.37,11.15,11.15,0,0,0-2.15-3.36A9.85,9.85,0,0,0,203,60.06a8.54,8.54,0,0,0-3.61-.81,8.63,8.63,0,0,0-3.62.81,9.81,9.81,0,0,0-3.11,2.24,11.15,11.15,0,0,0-2.15,3.36A10.76,10.76,0,0,0,189.7,69.84Z" fill="currentColor" class="logoPartnerButton"/><path class="cls-1" d="M244.53,56.45a11.25,11.25,0,0,1,4.34.84,10,10,0,0,1,3.47,2.36,11.18,11.18,0,0,1,2.28,3.65,12.71,12.71,0,0,1,.84,4.69v16.2h-2.8V68a9,9,0,0,0-.66-3.46,8.63,8.63,0,0,0-1.81-2.79,8.19,8.19,0,0,0-6-2.5,9,9,0,0,0-3.46.65A8.23,8.23,0,0,0,238,61.75a8.56,8.56,0,0,0-1.83,2.77,9,9,0,0,0-.65,3.47v16.2h-2.83V56.75h1.89l.94,4h.3a9.49,9.49,0,0,1,2-2.19,11.61,11.61,0,0,1,2.71-1.49A10.68,10.68,0,0,1,244.53,56.45Z" fill="currentColor" class="logoPartnerButton"/><path class="cls-1" d="M273.85,56.45a11.23,11.23,0,0,1,4.09.72,9.24,9.24,0,0,1,3.15,2,8.86,8.86,0,0,1,2,3,10.29,10.29,0,0,1,.72,3.9V84.18h-1.89l-.91-4h-.33a11.06,11.06,0,0,1-2,2.19A9.83,9.83,0,0,1,276,83.85a10.9,10.9,0,0,1-4,.64q-4.69,0-7.19-2.24a7.16,7.16,0,0,1-2.5-5.56,7.94,7.94,0,0,1,.81-3.52,7.39,7.39,0,0,1,2.62-2.88,14.79,14.79,0,0,1,4.72-1.93,30.37,30.37,0,0,1,7.14-.72H281V66.1a6.64,6.64,0,0,0-1.93-4.95,7.16,7.16,0,0,0-5.25-1.9,7.77,7.77,0,0,0-5.05,1.43,7.62,7.62,0,0,0-2.44,3.56h-2.8a8.8,8.8,0,0,1,1.07-2.94,8.67,8.67,0,0,1,2.13-2.5,11,11,0,0,1,3.07-1.71A11.52,11.52,0,0,1,273.85,56.45Zm-1.55,25.24A8.18,8.18,0,0,0,281,73v-2.5h-3.44a30.19,30.19,0,0,0-6,.5,12.62,12.62,0,0,0-3.84,1.35,5.24,5.24,0,0,0-2,2,5.06,5.06,0,0,0-.59,2.42,4.51,4.51,0,0,0,1.81,3.42A8,8,0,0,0,272.29,81.69Z" fill="currentColor" class="logoPartnerButton"/><path class="cls-1" d="M150.43,64.55a21.57,21.57,0,0,1-1.48,8.1,19.85,19.85,0,0,1-3.94,6.3A18,18,0,0,1,139.34,83a16.12,16.12,0,0,1-13.41,0,17.94,17.94,0,0,1-5.68-4.08,19.65,19.65,0,0,1-3.93-6.3,23.17,23.17,0,0,1,0-16.2,19.66,19.66,0,0,1,3.93-6.3,17.94,17.94,0,0,1,5.68-4.08,16.11,16.11,0,0,1,13.41,0A18,18,0,0,1,145,50.15a19.86,19.86,0,0,1,3.94,6.3A21.58,21.58,0,0,1,150.43,64.55Zm-32.42,0a20,20,0,0,0,1.17,7A16.37,16.37,0,0,0,122.39,77a14.89,14.89,0,0,0,4.69,3.49,13.06,13.06,0,0,0,11.14,0A14.72,14.72,0,0,0,142.89,77a16.71,16.71,0,0,0,3.21-5.39,21.33,21.33,0,0,0,0-14,16.71,16.71,0,0,0-3.21-5.39,14.72,14.72,0,0,0-4.67-3.49,13.06,13.06,0,0,0-11.14,0,14.89,14.89,0,0,0-4.69,3.49,16.37,16.37,0,0,0-3.21,5.39A20,20,0,0,0,118,64.55Z" fill="currentColor" class="logoPartnerButton"/><path class="cls-1" d="M176,48a2.13,2.13,0,0,1,2.19-2.19,2.08,2.08,0,0,1,1.55.62,2.32,2.32,0,0,1,0,3.14,2.08,2.08,0,0,1-1.55.62A2.13,2.13,0,0,1,176,48Zm3.44,36.17h-2.8V56.75h2.8Z" fill="currentColor" class="logoPartnerButton"/><path class="cls-1" d="M219.93,48a2.13,2.13,0,0,1,2.19-2.19,2.08,2.08,0,0,1,1.55.62,2.32,2.32,0,0,1,0,3.14,2.08,2.08,0,0,1-1.55.62A2.13,2.13,0,0,1,219.93,48Zm3.44,36.17h-2.8V56.75h2.8Z" fill="currentColor" class="logoPartnerButton"/><path class="cls-1" d="M295,84.18H292.2V44.91H295Z" fill="currentColor" class="logoPartnerButton"/><path class="cls-1" d="M333.32,63.3a13.76,13.76,0,0,1,3.75,2.13,11.46,11.46,0,0,1,2.59,3A8.43,8.43,0,0,1,340.81,73a10.57,10.57,0,0,1-.91,4.4,11.28,11.28,0,0,1-2.53,3.56,11.44,11.44,0,0,1-3.93,2.41,14.46,14.46,0,0,1-5.11.87H314V44.91h13.73a13.22,13.22,0,0,1,4.64.78,10.7,10.7,0,0,1,3.55,2.12A9.07,9.07,0,0,1,338.14,51a9.82,9.82,0,0,1,.78,3.91,8.25,8.25,0,0,1-.87,4,9.73,9.73,0,0,1-1.93,2.57A12.09,12.09,0,0,1,333.32,63.3Zm-16.23-1.25h10.63A8.28,8.28,0,0,0,333.64,60a7.1,7.1,0,0,0,0-10.23,8.28,8.28,0,0,0-5.92-2.06H317.09Zm0,2.8V81.38h11.23A9.88,9.88,0,0,0,332,80.7a9.23,9.23,0,0,0,3-1.87,9,9,0,0,0,2-2.71,7.36,7.36,0,0,0,.71-3.17,6.66,6.66,0,0,0-.71-3,8.89,8.89,0,0,0-2-2.62,9.52,9.52,0,0,0-3-1.84,9.88,9.88,0,0,0-3.71-.69Z" fill="currentColor" class="logoPartnerButton"/><path class="cls-1" d="M370.4,77.33a11.21,11.21,0,0,1-1.55,2.59,12,12,0,0,1-5.62,3.94,12.43,12.43,0,0,1-4.06.62A12.86,12.86,0,0,1,354,83.44a12.44,12.44,0,0,1-4.16-2.92,13.57,13.57,0,0,1-2.74-4.43,16.43,16.43,0,0,1,0-11.23,13.87,13.87,0,0,1,2.71-4.43,12.27,12.27,0,0,1,4.06-2.92,12.14,12.14,0,0,1,5-1.05,12,12,0,0,1,4.83,1,12.26,12.26,0,0,1,4,2.74,13.09,13.09,0,0,1,2.68,4.16,13.56,13.56,0,0,1,1,5.21,5.6,5.6,0,0,1-.06.87q-.06.38-.12.69l-.12.61H348.88A13,13,0,0,0,350,75.8a10.51,10.51,0,0,0,2.19,3.15,9.49,9.49,0,0,0,3.11,2,10.28,10.28,0,0,0,3.9.72,8.72,8.72,0,0,0,2.74-.41,9,9,0,0,0,2.22-1.07,8.56,8.56,0,0,0,1.66-1.43q.69-.78,1.17-1.45ZM358.86,59.25a8.79,8.79,0,0,0-3.52.72,9.73,9.73,0,0,0-3,2A11.69,11.69,0,0,0,350.16,65a13.54,13.54,0,0,0-1.28,3.88h19.64a12.3,12.3,0,0,0-1.08-3.9,10.82,10.82,0,0,0-2.12-3,9.36,9.36,0,0,0-2.94-2A8.79,8.79,0,0,0,358.86,59.25Z" fill="currentColor" class="logoPartnerButton"/><path class="cls-1" d="M381,84.18h-2.83V44.91H381Z" fill="currentColor" class="logoPartnerButton"/><path class="cls-1" d="M392.17,86.38a9.51,9.51,0,0,0,3,4,10.45,10.45,0,0,0,9.22,1A8.39,8.39,0,0,0,409,86.71a9,9,0,0,0,.66-3.47v-5h-.33a15.72,15.72,0,0,1-2.28,2.5,12.33,12.33,0,0,1-2.85,1.72,9.34,9.34,0,0,1-3.88.78,11.72,11.72,0,0,1-4.84-1,11.93,11.93,0,0,1-4-2.86,14.11,14.11,0,0,1-2.68-4.28,14.34,14.34,0,0,1,0-10.47,14.12,14.12,0,0,1,2.68-4.28,12,12,0,0,1,4-2.86,11.74,11.74,0,0,1,4.84-1,9.31,9.31,0,0,1,3.9.78A12.42,12.42,0,0,1,407,58.95a14.59,14.59,0,0,1,2.28,2.47h.33l.91-4.66h1.89V83.24a11.88,11.88,0,0,1-.87,4.55,11,11,0,0,1-6.12,6.12,11.89,11.89,0,0,1-4.55.87,14.58,14.58,0,0,1-4.55-.65,11.08,11.08,0,0,1-3.46-1.81,10.88,10.88,0,0,1-2.43-2.68,10.76,10.76,0,0,1-1.4-3.26Zm-1.55-16.53a10.75,10.75,0,0,0,.81,4.19,11.14,11.14,0,0,0,2.15,3.36,9.83,9.83,0,0,0,3.09,2.24,8.54,8.54,0,0,0,7.25,0A9.83,9.83,0,0,0,407,77.4,11.14,11.14,0,0,0,409.14,74a11.26,11.26,0,0,0,0-8.37A11.15,11.15,0,0,0,407,62.3a9.85,9.85,0,0,0-3.09-2.24,8.54,8.54,0,0,0-3.61-.81,8.63,8.63,0,0,0-3.62.81,9.81,9.81,0,0,0-3.11,2.24,11.15,11.15,0,0,0-2.15,3.36A10.76,10.76,0,0,0,390.62,69.84Z" fill="currentColor" class="logoPartnerButton"/><path class="cls-1" d="M420.85,48A2.13,2.13,0,0,1,423,45.82a2.08,2.08,0,0,1,1.55.62,2.32,2.32,0,0,1,0,3.14,2.08,2.08,0,0,1-1.55.62A2.13,2.13,0,0,1,420.85,48Zm3.44,36.17h-2.8V56.75h2.8Z" fill="currentColor" class="logoPartnerButton"/><path class="cls-1" d="M443.59,56.45a11.23,11.23,0,0,1,4.09.72,9.24,9.24,0,0,1,3.15,2,8.86,8.86,0,0,1,2,3,10.29,10.29,0,0,1,.72,3.9V84.18h-1.89l-.91-4h-.33a11.06,11.06,0,0,1-2,2.19,9.83,9.83,0,0,1-2.69,1.52,10.9,10.9,0,0,1-4,.64q-4.69,0-7.19-2.24a7.16,7.16,0,0,1-2.5-5.56,7.94,7.94,0,0,1,.81-3.52,7.39,7.39,0,0,1,2.62-2.88,14.79,14.79,0,0,1,4.72-1.93,30.37,30.37,0,0,1,7.14-.72h3.44V66.1a6.64,6.64,0,0,0-1.93-4.95,7.16,7.16,0,0,0-5.25-1.9,7.77,7.77,0,0,0-5.05,1.43,7.62,7.62,0,0,0-2.44,3.56h-2.8a8.8,8.8,0,0,1,1.07-2.94,8.67,8.67,0,0,1,2.13-2.5,11,11,0,0,1,3.07-1.71A11.52,11.52,0,0,1,443.59,56.45ZM442,81.69A8.18,8.18,0,0,0,450.77,73v-2.5h-3.44a30.19,30.19,0,0,0-6,.5,12.62,12.62,0,0,0-3.84,1.35,5.24,5.24,0,0,0-2,2,5.06,5.06,0,0,0-.59,2.42,4.51,4.51,0,0,0,1.81,3.42A8,8,0,0,0,442,81.69Z" fill="currentColor" class="logoPartnerButton"/><path class="cls-1" d="M473.79,56.45a11.25,11.25,0,0,1,4.34.84,10,10,0,0,1,3.47,2.36,11.18,11.18,0,0,1,2.28,3.65,12.71,12.71,0,0,1,.84,4.69v16.2h-2.8V68a9,9,0,0,0-.66-3.46,8.63,8.63,0,0,0-1.81-2.79,8.19,8.19,0,0,0-6-2.5,9,9,0,0,0-3.46.65,8.23,8.23,0,0,0-2.77,1.84,8.56,8.56,0,0,0-1.83,2.77,9,9,0,0,0-.65,3.47v16.2h-2.83V56.75h1.89l.94,4h.3a9.49,9.49,0,0,1,2-2.19,11.61,11.61,0,0,1,2.71-1.49A10.68,10.68,0,0,1,473.79,56.45Z" fill="currentColor" class="logoPartnerButton"/></svg>
